#!OML:ASF X:\für Bonn\!DataBase\2005_08_12_Daniel\c3d\Daniel.ASF
:FULLY-SPECIFIED
:DEGREES
76
root -29.2297 19.357 -0.883514 535.197 94.5419 -1982.24
lowerback 26.7707 -0.513684 0.948477
upperback 4.7149 -0.253868 -2.23108
thorax -9.61128 -0.0173529 -2.98674
lowerneck 3.32455 1.4844 -10.7194
upperneck 4.57807 1.72258 2.52709
head 0.766078 0.745362 2.66758
rclavicle -4.96962e-015 9.54166e-015
rhumerus -10.9917 41.7904 -95.6765
rradius 83.3961
rwrist 1.18362
rhand -24.1728 26.7836
rfingers 7.12502
rthumb 2.31049 -3.18366
lclavicle -4.96962e-015 9.54166e-015
lhumerus -1.87389 -37.1292 78.3618
lradius 91.3611
lwrist 11.1664
lhand -14.8823 -13.001
lfingers 7.12502
lthumb 11.2783 16.6758
rfemur -16.0131 -1.5439 22.5801
rtibia 44.9696
rfoot 2.89464 -2.82982
rtoes -13.5702
lfemur -16.8088 0.98635 -19.7765
ltibia 49.5407
lfoot 1.33832 0.787825
ltoes -8.88207
77
root -29.0093 19.3074 -0.877986 535.627 94.3829 -1981.82
lowerback 27.1863 -0.593532 0.921891
upperback 5.00321 -0.32791 -2.19857
thorax -9.50093 -0.0345277 -2.91245
lowerneck 3.16243 1.48334 -10.8756
upperneck 4.09104 1.71733 2.61632
head 0.635957 0.751961 2.72519
rclavicle -8.54774e-015 1.59028e-015
rhumerus -13.2595 40.7777 -97.1137
rradius 81.6639
rwrist 1.69458
rhand -23.3504 27.2462
rfingers 7.12502
rthumb 3.10473 -2.71098
lclavicle -8.54774e-015 1.59028e-015
lhumerus -4.47159 -36.8051 80.0424
lradius 89.49
lwrist 11.3664
lhand -14.0773 -12.91
lfingers 7.12502
lthumb 12.0546 16.7228
rfemur -16.6533 -1.16468 22.5867
rtibia 43.6168
rfoot 2.03437 -2.93131
rtoes -14.5558
lfemur -17.8482 0.545467 -19.7547
ltibia 48.9904
lfoot 0.985921 0.914558
ltoes -8.66439
78
root -28.7871 19.2468 -0.873186 536.163 94.269 -1981.25
lowerback 27.6293 -0.660573 0.897777
upperback 5.31035 -0.383809 -2.19184
thorax -9.38028 -0.0420765 -2.87474
lowerneck 3.00485 1.4624 -10.9108
upperneck 3.43645 1.68708 2.62942
head 0.454445 0.752059 2.73363
rclavicle 9.93923e-016 -1.03368e-014
rhumerus -15.457 39.5431 -98.5056
rradius 79.8237
rwrist 1.96242
rhand -22.6577 27.7113
rfingers 7.12502
rthumb 3.77364 -2.23506
lclavicle 9.93923e-016 -1.03368e-014
lhumerus -7.10253 -36.2416 81.7275
lradius 87.5298
lwrist 11.5312
lhand -13.0441 -12.644
lfingers 7.12502
lthumb 13.0506 16.9277
rfemur -17.2254 -0.705367 22.5471
rtibia 42.2748
rfoot 1.39761 -3.07438
rtoes -15.5574
lfemur -18.8469 0.0376251 -19.7301
ltibia 48.4812
lfoot 0.681843 1.11147
ltoes -8.32538
79
root -28.5654 19.1742 -0.869174 536.354 94.124 -1981.04
lowerback 28.0686 -0.750058 0.906529
upperback 5.62719 -0.455572 -2.1728
thorax -9.24575 -0.0568534 -2.83619
lowerneck 2.72908 1.41422 -10.9173
upperneck 2.72013 1.6354 2.61961
head 0.276073 0.744114 2.73036
rclavicle 9.93923e-016 -1.19271e-014
rhumerus -17.5403 38.0927 -99.8156
rradius 77.7961
rwrist 2.16285
rhand -22.236 28.0377
rfingers 7.12502
rthumb 4.18084 -1.90104
lclavicle 9.93923e-016 -1.19271e-014
lhumerus -9.73705 -35.4034 83.4378
lradius 85.4335
lwrist 11.4025
lhand -12.01 -12.3779
lfingers 7.12502
lthumb 14.0474 17.1274
rfemur -17.7816 -0.250019 22.5116
rtibia 40.9669
rfoot 0.858388 -3.22165
rtoes -16.7423
lfemur -19.8826 -0.579697 -19.6684
ltibia 48.0155
lfoot 0.52839 1.36173
ltoes -7.6086
